<svg xmlns="http://www.w3.org/2000/svg" viewBox="0 0 127.56 127.56"><g id="Layer_2" data-name="Layer 2"><g id="Layer_2-2" data-name="Layer 2"><g id="Logo"><path id="wrench" d="M125.56,100.67,78.65,53.83a37.75,37.75,0,0,1,.77-12.28c1.82-6.86,1.82-11,.29-15.42C77,18.61,70,11.66,60.11,6.8,52,2.8,42.64-1.55,39.79.54a2.86,2.86,0,0,0-1.16,2C38.63,4.27,41,7.85,41,7.85L52.08,25,42.58,43.1,22,44,11,26.79S5.92,20,3.12,24.1c-1.38,1.47-2.89,6.41-3,11-.32,3.21-.1,5.8.09,10.75.19,5.62.38,7,1.73,10.76A34.3,34.3,0,0,0,8,68c6.15,8,15.28,13.14,23.45,13.14A64.54,64.54,0,0,0,40.41,80c7.11-1.33,10.19-.66,10.19-.66l48.72,46.87a3.58,3.58,0,0,0,1.79.92h0c15,2.77,28.61-8.1,26.16-23.07h0A6.06,6.06,0,0,0,125.56,100.67Z"/><g id="tire"><path d="M43.1,13.21a17,17,0,1,0,0,24.06A17,17,0,0,0,43.1,13.21ZM42,36.18A15.46,15.46,0,1,1,42,14.3,15.45,15.45,0,0,1,42,36.18Z"/><path d="M44.1,24.45a1.09,1.09,0,0,0,0-.18,13,13,0,0,0-1.26-4.7.54.54,0,0,0,0-.11,13,13,0,0,0-5.91-5.92l-.12-.06a13.17,13.17,0,0,0-4.68-1.25.61.61,0,0,0-.19,0,13.05,13.05,0,0,0-8.07,2.17l0,0A13.09,13.09,0,0,0,18.06,26a1.09,1.09,0,0,0,0,.18,13,13,0,0,0,1.26,4.69.54.54,0,0,0,.05.11A13.12,13.12,0,0,0,25.3,37l.11,0a13,13,0,0,0,4.7,1.25h.16c.26,0,.53,0,.8,0a13.06,13.06,0,0,0,7.27-2.21h0a13.44,13.44,0,0,0,1.93-1.6,13.29,13.29,0,0,0,1.59-1.92l0-.06A13.1,13.1,0,0,0,44.1,24.45ZM37,15.5a11.38,11.38,0,0,1,3.84,3.84h0l-5.25,1.41Zm-6.14-1.65h0l-1.41,5.26-3.86-3.86A11.54,11.54,0,0,1,30.84,13.85Zm-9.75,5.9,3.85,3.85L19.69,25A11.38,11.38,0,0,1,21.09,19.75ZM25.18,35a11.26,11.26,0,0,1-3.85-3.85l5.26-1.41Zm6.14,1.64,1.41-5.25,3.84,3.84A11.35,11.35,0,0,1,31.32,36.63ZM38,34.29l-5.11-5.1a.82.82,0,0,0-1.17,0,.87.87,0,0,0-.22.37l-1.86,7a11.11,11.11,0,0,1-2.94-.78l1.87-7a.82.82,0,0,0-.59-1,.79.79,0,0,0-.43,0l-7,1.87a11.43,11.43,0,0,1-.78-2.93l7-1.88a.82.82,0,0,0,.59-1,.85.85,0,0,0-.21-.37L22,18.32a11.77,11.77,0,0,1,2.15-2.14h0l5.11,5.11a.83.83,0,0,0,.59.25.76.76,0,0,0,.21,0,.85.85,0,0,0,.59-.59l1.87-7a11.14,11.14,0,0,1,2.93.78l-1.87,7a.82.82,0,0,0,.58,1l.22,0a.76.76,0,0,0,.21,0l7-1.86a11.43,11.43,0,0,1,.78,2.93l-7,1.86a.85.85,0,0,0-.59,1A.87.87,0,0,0,35,27l5.11,5.11A11.47,11.47,0,0,1,38,34.29Zm3.07-3.56-3.84-3.84,5.24-1.41A11.46,11.46,0,0,1,41.06,30.73Z"/><path d="M31.08,22.06a3.17,3.17,0,0,0-2.25,5.42,3.14,3.14,0,0,0,2.24.93h0a3.18,3.18,0,0,0,0-6.35Zm1.07,4.25A1.52,1.52,0,0,1,30,24.17h0a1.52,1.52,0,0,1,2.15,2.15Z"/></g></g></g></g></svg>